<svg width="404" height="404" viewBox="0 0 404 404" fill="none" xmlns="http://www.w3.org/2000/svg">
<path fill-rule="evenodd" clip-rule="evenodd" d="M202 0C174.11 0 151.5 22.6096 151.5 50.5V51.4065L150.715 50.9532C126.562 37.0079 95.6764 45.2836 81.7311 69.4375C67.786 93.5914 76.0617 124.477 100.215 138.422L101 138.875L100.215 139.328C76.0617 153.273 67.786 184.159 81.7311 208.312C95.6764 232.466 126.562 240.742 150.715 226.797L151.5 226.344V227.25C151.5 255.141 174.11 277.75 202 277.75C229.891 277.75 252.5 255.141 252.5 227.25V226.344L253.286 226.797C277.44 240.742 308.326 232.466 322.269 208.312C336.214 184.159 327.94 153.273 303.786 139.328L303 138.875L303.786 138.422C327.94 124.477 336.214 93.5914 322.269 69.4375C308.326 45.2836 277.44 37.0079 253.286 50.9532L252.5 51.4065V50.5C252.5 22.6096 229.891 0 202 0ZM201.999 176.75C222.917 176.75 239.874 159.793 239.874 138.875C239.874 117.957 222.917 101 201.999 101C181.081 101 164.124 117.957 164.124 138.875C164.124 159.793 181.081 176.75 201.999 176.75Z" fill="url(#paint0_linear_2297_411)"/>
<path d="M176.75 404H151.5C81.7741 404 25.25 347.475 25.25 277.75V252.5H50.5C120.226 252.5 176.75 309.025 176.75 378.75V404Z" fill="url(#paint1_linear_2297_411)"/>
<path d="M252.5 404H227.25V378.75C227.25 309.025 283.775 252.5 353.5 252.5H378.75V277.75C378.75 347.475 322.225 404 252.5 404Z" fill="url(#paint2_linear_2297_411)"/>
<defs>
<linearGradient id="paint0_linear_2297_411" x1="202" y1="0" x2="202" y2="277.75" gradientUnits="userSpaceOnUse">
<stop stop-color="#FF007B"/>
<stop offset="1" stop-color="#B300FF"/>
</linearGradient>
<linearGradient id="paint1_linear_2297_411" x1="101" y1="252.5" x2="101" y2="404" gradientUnits="userSpaceOnUse">
<stop stop-color="#FF007B"/>
<stop offset="1" stop-color="#B300FF"/>
</linearGradient>
<linearGradient id="paint2_linear_2297_411" x1="303" y1="252.5" x2="303" y2="404" gradientUnits="userSpaceOnUse">
<stop stop-color="#FF007B"/>
<stop offset="1" stop-color="#B300FF"/>
</linearGradient>
</defs>
</svg>
